<?xml version="1.0" encoding="UTF-8" standalone="no"?>
<svg
   viewBox="0 0 48 48"
   width="48px"
   height="48px"
   version="1.1"
   id="svg56"
   sodipodi:docname="exit-folder-icon.svg"
   inkscape:version="1.2.2 (732a01da63, 2022-12-09)"
   xmlns:inkscape="http://www.inkscape.org/namespaces/inkscape"
   xmlns:sodipodi="http://sodipodi.sourceforge.net/DTD/sodipodi-0.dtd"
   xmlns="http://www.w3.org/2000/svg"
   xmlns:svg="http://www.w3.org/2000/svg">
  <defs
     id="defs60">
    <marker
       style="overflow:visible"
       id="RoundedArrow"
       refX="0"
       refY="0"
       orient="auto-start-reverse"
       inkscape:stockid="RoundedArrow"
       markerWidth="6.1347523"
       markerHeight="5.9304953"
       viewBox="0 0 6.1347524 5.9304951"
       inkscape:isstock="true"
       inkscape:collect="always"
       preserveAspectRatio="xMidYMid">
      <path
         transform="scale(0.7)"
         d="m -0.21114562,-4.1055728 6.42229122,3.21114561 a 1,1 90 0 1 0,1.78885438 L -0.21114562,4.1055728 A 1.236068,1.236068 31.717474 0 1 -2,3 v -6 a 1.236068,1.236068 148.28253 0 1 1.78885438,-1.1055728 z"
         style="fill:context-stroke;fill-rule:evenodd;stroke:none"
         id="path1367" />
    </marker>
  </defs>
  <sodipodi:namedview
     id="namedview58"
     pagecolor="#ffffff"
     bordercolor="#000000"
     borderopacity="0.25"
     inkscape:showpageshadow="2"
     inkscape:pageopacity="0.0"
     inkscape:pagecheckerboard="0"
     inkscape:deskcolor="#d1d1d1"
     showgrid="false"
     inkscape:zoom="14.760854"
     inkscape:cx="15.107527"
     inkscape:cy="32.992671"
     inkscape:window-width="1999"
     inkscape:window-height="1445"
     inkscape:window-x="4070"
     inkscape:window-y="342"
     inkscape:window-maximized="0"
     inkscape:current-layer="svg56" />
  <linearGradient
     id="Om5yvFr6YrdlC0q2Vet0Ha"
     x1="-7.018"
     x2="39.387"
     y1="9.308"
     y2="33.533"
     gradientUnits="userSpaceOnUse"
     gradientTransform="translate(0.88070785)">
    <stop
       offset="0"
       stop-color="#fac017"
       id="stop2" />
    <stop
       offset=".909"
       stop-color="#e1ab2d"
       id="stop4" />
  </linearGradient>
  <path
     fill="url(#Om5yvFr6YrdlC0q2Vet0Ha)"
     d="M 45.380708,41 H 4.3807078 c -1.381,0 -2.5,-1.119 -2.5,-2.5 v -31 c 0,-1.381 1.119,-2.5 2.5,-2.5 H 15.977708 c 1.519,0 2.955,0.69 3.904,1.877 l 2.499,3.123 h 23 c 1.381,0 2.5,1.119 2.5,2.5 v 26 c 0,1.381 -1.119,2.5 -2.5,2.5 z"
     id="path7"
     style="fill:url(#Om5yvFr6YrdlC0q2Vet0Ha)" />
  <linearGradient
     id="Om5yvFr6YrdlC0q2Vet0Hb"
     x1="5.851"
     x2="18.601"
     y1="9.254"
     y2="27.39"
     gradientUnits="userSpaceOnUse"
     gradientTransform="translate(0.88070785)">
    <stop
       offset="0"
       stop-color="#fbfef3"
       id="stop9" />
    <stop
       offset=".909"
       stop-color="#e2e4e3"
       id="stop11" />
  </linearGradient>
  <path
     fill="url(#Om5yvFr6YrdlC0q2Vet0Hb)"
     d="M 2.8807078,25 H 22.880708 V 11 H 4.8807078 c -1.105,0 -2,0.895 -2,2 z"
     id="path14"
     style="fill:url(#Om5yvFr6YrdlC0q2Vet0Hb)" />
  <linearGradient
     id="Om5yvFr6YrdlC0q2Vet0Hc"
     x1="2"
     x2="22"
     y1="19"
     y2="19"
     gradientUnits="userSpaceOnUse"
     gradientTransform="translate(0.88070785)">
    <stop
       offset="0"
       stop-color="#fbfef3"
       id="stop16" />
    <stop
       offset=".909"
       stop-color="#e2e4e3"
       id="stop18" />
  </linearGradient>
  <path
     fill="url(#Om5yvFr6YrdlC0q2Vet0Hc)"
     d="M 2.8807078,26 H 22.880708 V 12 H 4.8807078 c -1.105,0 -2,0.895 -2,2 z"
     id="path21"
     style="fill:url(#Om5yvFr6YrdlC0q2Vet0Hc)" />
  <linearGradient
     id="Om5yvFr6YrdlC0q2Vet0Hd"
     x1="16.865"
     x2="44.965"
     y1="39.287"
     y2="39.792"
     gradientUnits="userSpaceOnUse"
     gradientTransform="translate(0.88070785)">
    <stop
       offset="0"
       stop-color="#e3a917"
       id="stop23" />
    <stop
       offset=".464"
       stop-color="#d79c1e"
       id="stop25" />
  </linearGradient>
  <path
     fill="url(#Om5yvFr6YrdlC0q2Vet0Hd)"
     d="M 1.8807078,37.875 V 38.5 c 0,1.381 1.119,2.5 2.5,2.5 H 45.380708 c 1.381,0 2.5,-1.119 2.5,-2.5 v -0.625 z"
     id="path28"
     style="fill:url(#Om5yvFr6YrdlC0q2Vet0Hd)" />
  <linearGradient
     id="Om5yvFr6YrdlC0q2Vet0He"
     x1="-4.879"
     x2="35.968"
     y1="12.764"
     y2="30.778"
     gradientUnits="userSpaceOnUse"
     gradientTransform="translate(0.88070785)">
    <stop
       offset=".34"
       stop-color="#ffefb2"
       id="stop30" />
    <stop
       offset=".485"
       stop-color="#ffedad"
       id="stop32" />
    <stop
       offset=".652"
       stop-color="#ffe99f"
       id="stop34" />
    <stop
       offset=".828"
       stop-color="#fee289"
       id="stop36" />
    <stop
       offset="1"
       stop-color="#fed86b"
       id="stop38" />
  </linearGradient>
  <path
     fill="url(#Om5yvFr6YrdlC0q2Vet0He)"
     d="m 45.380708,11 h -23 l -1.237,0.824 c -1.149,0.767 -2.5,1.176 -3.882,1.176 H 4.3807078 c -1.381,0 -2.5,1.119 -2.5,2.5 v 22 c 0,1.381 1.119,2.5 2.5,2.5 H 45.380708 c 1.381,0 2.5,-1.119 2.5,-2.5 v -24 c 0,-1.381 -1.119,-2.5 -2.5,-2.5 z"
     id="path41"
     style="fill:url(#Om5yvFr6YrdlC0q2Vet0He)" />
  <radialGradient
     id="Om5yvFr6YrdlC0q2Vet0Hf"
     cx="37.836"
     cy="49.317"
     r="53.875"
     gradientUnits="userSpaceOnUse"
     gradientTransform="translate(0.88070785)">
    <stop
       offset=".199"
       stop-color="#fec832"
       id="stop43" />
    <stop
       offset=".601"
       stop-color="#fcd667"
       id="stop45" />
    <stop
       offset=".68"
       stop-color="#fdda75"
       id="stop47" />
    <stop
       offset=".886"
       stop-color="#fee496"
       id="stop49" />
    <stop
       offset="1"
       stop-color="#ffe8a2"
       id="stop51" />
  </radialGradient>
  <path
     fill="url(#Om5yvFr6YrdlC0q2Vet0Hf)"
     d="M 45.380708,40 H 4.3807078 c -1.381,0 -2.5,-1.119 -2.5,-2.5 v -21 c 0,-1.381 1.119,-2.5 2.5,-2.5 H 17.636708 c 1.382,0 2.733,-0.409 3.883,-1.176 l 1.236,-0.824 h 22.625 c 1.381,0 2.5,1.119 2.5,2.5 v 23 c 0,1.381 -1.119,2.5 -2.5,2.5 z"
     id="path54"
     style="fill:url(#Om5yvFr6YrdlC0q2Vet0Hf)" />
  <g
     inkscape:groupmode="layer"
     id="layer1"
     inkscape:label="Layer 1">
    <path
       style="fill:#00ffff;fill-opacity:1;stroke:#288ed3;stroke-width:1.5;stroke-dasharray:36, 1.5;stroke-dashoffset:18.3;stroke-opacity:1;marker-start:url(#RoundedArrow)"
       d="M 7.1390877,30.610778 H 16.912585"
       id="path6337" />
    <path
       style="fill:#00ffff;fill-opacity:1;stroke:#288ed3;stroke-width:4.29775;stroke-linecap:butt;stroke-linejoin:bevel;stroke-miterlimit:10.2;stroke-dasharray:103.146, 4.29775;stroke-dashoffset:50.2836;stroke-opacity:1;paint-order:normal"
       d="M 8.9125867,30.51497 H 21.128155"
       id="path8655" />
  </g>
</svg>
